<?xml version="1.0" encoding="UTF-8" standalone="no"?>
<!-- Created with Inkscape (http://www.inkscape.org/) -->

<svg
   width="210mm"
   height="297mm"
   viewBox="0 0 210 297"
   version="1.1"
   id="svg1"
   xml:space="preserve"
   inkscape:version="1.3.2 (091e20e, 2023-11-25, custom)"
   sodipodi:docname="3d60 Final V3.svg"
   inkscape:export-filename="3d60 Final V3.png"
   inkscape:export-xdpi="300"
   inkscape:export-ydpi="300"
   xmlns:inkscape="http://www.inkscape.org/namespaces/inkscape"
   xmlns:sodipodi="http://sodipodi.sourceforge.net/DTD/sodipodi-0.dtd"
   xmlns="http://www.w3.org/2000/svg"
   xmlns:svg="http://www.w3.org/2000/svg"><sodipodi:namedview
     id="namedview1"
     pagecolor="#ffffff"
     bordercolor="#666666"
     borderopacity="1.0"
     inkscape:showpageshadow="2"
     inkscape:pageopacity="0.0"
     inkscape:pagecheckerboard="0"
     inkscape:deskcolor="#d1d1d1"
     inkscape:document-units="mm"
     inkscape:zoom="0.74029882"
     inkscape:cx="199.91927"
     inkscape:cy="409.96958"
     inkscape:window-width="1920"
     inkscape:window-height="1009"
     inkscape:window-x="3043"
     inkscape:window-y="167"
     inkscape:window-maximized="1"
     inkscape:current-layer="g8" /><defs
     id="defs1" /><g
     inkscape:label="Layer 1"
     inkscape:groupmode="layer"
     id="layer1"><g
       id="g8"
       transform="matrix(1.4832554,0,0,1.4832554,-63.926115,-79.204178)"
       style="fill:#800000"><path
         id="path5"
         style="fill:#800000"
         d="m 64.878859,123.78469 c -2.470843,-0.008 -5.667577,0.002 -9.882084,0.0181 l -9.218042,0.0129 v 11.27321 l 10.233483,0.0165 c 3.24032,0.0123 8.172929,0.0791 10.961089,0.14883 l 5.068941,0.1266 1.3224,0.65164 c 3.141803,1.54798 5.077779,5.30948 4.534607,8.81032 -0.430451,2.77432 -2.183938,5.20951 -4.6731,6.48901 l -1.39268,0.71572 -5.163509,0.13849 c -2.839876,0.076 -5.900538,0.14596 -6.801652,0.15606 l -1.63866,0.0186 v 5.5609 5.56038 l 4.815727,0.009 c 6.742288,0.0121 8.590542,0.18808 10.174573,0.9679 3.209292,1.57992 5.350709,5.63575 4.696354,8.89403 -0.495413,2.46684 -2.204913,5.02423 -4.09019,6.11849 -1.790047,1.03895 -2.422494,1.08985 -13.43949,1.08985 H 45.778733 v 11.46959 c 1.420625,-0.007 8.120211,-3.6e-4 9.720337,-0.0119 14.261295,-0.10276 16.737354,-0.16418 18.022155,-0.44442 7.706533,-1.68096 13.756644,-7.75852 15.410946,-15.48174 0.385266,-1.79871 0.380012,-6.34602 -0.0093,-8.17573 -0.746698,-3.50937 -2.18859,-6.35948 -4.492749,-8.88059 l -1.018542,-1.11466 0.986503,-1.14205 c 2.086119,-2.41444 3.590782,-5.23098 4.295862,-8.04241 0.737848,-2.9421 0.746639,-7.37014 0.02015,-10.14976 -1.677597,-6.41873 -6.906376,-11.87505 -13.306164,-13.88598 -2.235914,-0.70255 -3.116546,-0.89257 -10.529073,-0.91674 z"
         sodipodi:nodetypes="scccccccsccccccccssssccsssscccssss" /><path
         style="fill:#800000"
         d="m 95.231508,192.65919 c -0.322508,-0.1875 -0.347537,-0.81998 -0.347537,-8.782 v -8.57996 l 6.404619,-3.9873 6.40461,-3.9873 0.0993,6.4704 0.0993,6.47039 2.99058,-0.0269 c 15.61368,-0.14018 23.90065,-8.82567 22.90972,-24.01145 -0.64946,-9.95271 -5.73791,-16.30958 -14.86033,-18.56465 -2.59107,-0.64051 -3.97887,-0.81001 -7.60828,-0.92922 l -3.51906,-0.11558 -0.0556,2.65603 -0.0556,2.65602 -6.31881,3.92585 c -3.475363,2.15921 -6.357442,3.92584 -6.404628,3.92584 -0.04718,0 -0.08579,-5.70991 -0.08579,-12.6887 0,-11.38723 0.03222,-12.70106 0.314131,-12.80924 0.525112,-0.2015 15.322057,-0.13416 17.658507,0.0804 9.25303,0.84959 16.03879,2.95253 21.65501,6.71099 3.64599,2.43995 7.36769,6.81106 9.22136,10.83039 2.61847,5.67769 3.70495,12.49557 3.19116,20.02525 -0.87361,12.80297 -6.3124,21.68785 -16.15071,26.384 -5.21393,2.48878 -12.00832,4.02759 -18.81049,4.26024 -6.79936,0.23255 -16.394875,0.28216 -16.731431,0.0865 z"
         id="path1" /><path
         d="m 144.43476,128.90226 q 0,0.74854 0.49902,1.24756 0.49902,0.49902 1.16439,0.49902 h 7.48532 q 0.66536,0 1.16438,-0.49902 0.49902,-0.49902 0.49902,-1.24756 v -1.6634 q 0,-0.74853 -0.49902,-1.24756 -0.49902,-0.49902 -1.16438,-0.49902 h -8.31703 v -5.65557 h 8.31703 q 3.1272,0 5.30626,2.17906 2.17905,2.17906 2.17905,5.22309 v 1.6634 q 0,3.04403 -2.17905,5.22309 -2.17906,2.17906 -5.30626,2.17906 h -7.48532 q -3.1272,0 -5.30626,-2.17906 -2.17906,-2.17906 -2.17906,-5.22309 v -9.14871 q 0,-3.04404 2.17906,-5.2231 2.17906,-2.17906 5.30626,-2.17906 h 11.64382 v 5.65558 h -11.64382 q -0.66537,0 -1.16439,0.49902 -0.49902,0.49902 -0.49902,1.24756 z"
         style="font-size:64px;line-height:1.25;font-family:IDroid;-inkscape-font-specification:IDroid;white-space:pre;shape-inside:url(#rect298);display:inline;fill:#800000;fill-opacity:1;stroke-width:0.532289"
         id="path182" /><path
         d="m 172.69387,112.35139 q 4.67417,0 7.95107,3.52642 3.27691,3.52641 3.27691,8.4501 0,4.92367 -3.27691,8.45008 -3.2769,3.52642 -7.95107,3.52642 -4.67416,0 -7.95106,-3.52642 -3.27691,-3.52641 -3.27691,-8.45008 0,-4.92369 3.27691,-8.4501 3.2769,-3.52642 7.95106,-3.52642 z m 0,18.29745 q 2.1957,0 3.79256,-1.82975 1.6135,-1.82974 1.6135,-4.49118 0,-2.66145 -1.6135,-4.4912 -1.59686,-1.82974 -3.79256,-1.82974 -2.19569,0 -3.80919,1.82974 -1.59687,1.82975 -1.59687,4.4912 0,2.66144 1.59687,4.49118 1.6135,1.82975 3.80919,1.82975 z"
         style="font-size:64px;line-height:1.25;font-family:IDroid;-inkscape-font-specification:IDroid;white-space:pre;shape-inside:url(#rect298);display:inline;fill:#800000;fill-opacity:1;stroke-width:0.532289"
         id="path184" /></g></g></svg>
